<svg version="1.1" viewBox="0.0 0.0 958.0761154855643 225.246719160105" fill="none" stroke="none" stroke-linecap="square" stroke-miterlimit="10" xmlns:xlink="http://www.w3.org/1999/xlink" xmlns="http://www.w3.org/2000/svg"><clipPath id="p.0"><path d="m0 0l958.0761 0l0 225.24672l-958.0761 0l0 -225.24672z" clip-rule="nonzero"/></clipPath><g clip-path="url(#p.0)"><path fill="#000000" fill-opacity="0.0" d="m0 0l958.0761 0l0 225.24672l-958.0761 0z" fill-rule="evenodd"/><path fill="#000000" fill-opacity="0.0" d="m24.014435 5.1587925l910.04724 0l0 214.92912l-910.04724 0z" fill-rule="evenodd"/><path fill="#000000" d="m81.37021 170.82004q-8.078125 0 -14.859375 -2.90625q-6.765625 -2.90625 -11.6875 -8.0625q-4.921875 -5.171875 -7.671875 -12.1875q-2.734375 -7.015625 -2.734375 -15.40625q0 -8.234383 2.734375 -15.250008q2.75 -7.015625 7.671875 -12.171875q4.921875 -5.171875 11.6875 -8.0625q6.78125 -2.90625 14.6875 -2.90625q9.03125 0 16.203125 3.625q7.1875 3.625 11.71875 10.078125l-7.265625 7.09375l-1.125 1.140625l-0.8125 -0.8125q0 -1.28125 -0.5625 -2.40625q-0.5625 -1.140625 -2.5 -3.078125q-3.546875 -3.21875 -7.59375 -4.515625q-4.03125 -1.296875 -9.34375 -1.296875q-4.6875 0 -8.890625 1.9375q-4.1875 1.9375 -7.5 5.578125q-3.296875 3.625 -5.234375 8.796875q-1.9375 5.15625 -1.9375 11.437508q0 6.296875 1.9375 11.546875q1.9375 5.234375 5.328125 9.109375q3.390625 3.875 8.140625 6.046875q4.765625 2.171875 10.25 2.171875q3.703125 0 7.09375 -1.046875q3.390625 -1.046875 6.453125 -3.0625q3.0625 -2.015625 5.65625 -4.921875l6.765625 7.90625q-5.484375 5.8125 -12.1875 8.71875q-6.6875 2.90625 -14.421875 2.90625l0 0zm68.72653 0q-12.59375 0 -19.375 -5.71875q-6.765625 -5.734375 -6.765625 -14.609375q0 -5.96875 2.90625 -10.734375q2.90625 -4.765625 7.984375 -8.0625q5.078125 -3.3125 11.84375 -5.0781326q6.78125 -1.78125 14.375 -1.78125q2.734375 0 5.5625 0.078125q2.828125 0.078125 5.96875 0.328125q3.140625 0.234375 6.53125 0.71875l0.328125 8.875008q-2.90625 -0.484375 -5.890625 -0.71875q-2.984375 -0.25 -5.890625 -0.40625q-2.90625 -0.15625 -5.640625 -0.15625q-5.8125 0 -10.65625 0.96875q-4.84375 0.953125 -8.390625 2.890625q-3.546875 1.9375 -5.484375 5.015625q-1.9375 3.0625 -1.9375 7.40625q0 3.390625 1.203125 5.734375q1.21875 2.34375 3.3125 3.71875q2.109375 1.359375 4.921875 2.015625q2.828125 0.640625 6.21875 0.640625q6.296875 0 11.203125 -2.015625q4.921875 -2.015625 8.390625 -5.890625q3.46875 -3.875 5.234375 -9.515625q1.78125 -5.65625 1.78125 -12.90625q0 -10.968758 -2.578125 -17.093758q-2.578125 -6.140625 -7.65625 -8.71875q-5.078125 -2.59375 -12.984375 -2.59375q-5.328125 0 -10.5 2.03125q-5.15625 2.015625 -9.34375 6.203125l-5.65625 -7.421875q5.171875 -5.15625 11.9375 -7.734375q6.78125 -2.59375 14.359375 -2.59375q7.265625 0 13.234375 1.78125q5.96875 1.765625 10.234375 5.890625q4.28125 4.109375 6.625 11.046875q2.34375 6.9375 2.34375 17.421883l0 39.203125l-12.59375 0l0 -11.296875q-2.09375 4.03125 -5.078125 6.625q-2.984375 2.578125 -6.375 3.953125q-3.390625 1.359375 -6.9375 1.921875q-3.546875 0.578125 -6.765625 0.578125zm58.226532 -1.78125l0 -73.73438l11.296875 0l0 13.078125q2.90625 -4.515625 6.78125 -7.828125q3.875 -3.3125 8.546875 -5.15625q4.671875 -1.859375 9.6875 -1.859375q6.125 0 10.953125 3.0625q4.84375 3.0625 7.75 9.84375q2.90625 6.78125 2.90625 17.90625l0 44.687508l-11.296875 0l0 -44.359383q0 -7.75 -1.78125 -12.34375q-1.765625 -4.59375 -4.828125 -6.609375q-3.0625 -2.03125 -6.9375 -2.03125q-3.703125 0 -7.5 1.625q-3.796875 1.609375 -7.03125 4.59375q-3.21875 2.984375 -5.234375 7.1875q-2.015625 4.1875 -2.015625 9.515625l0 42.421883l-11.296875 0zm109.38278 1.296875q-10.0 0 -17.671875 -4.921875q-7.65625 -4.921875 -12.015625 -13.546875q-4.34375 -8.640625 -4.34375 -19.765625q0 -11.296883 4.34375 -19.921883q4.359375 -8.640625 12.015625 -13.5625q7.671875 -4.921875 17.671875 -4.921875q10.0 0 17.65625 4.921875q7.671875 4.921875 12.03125 13.5625q4.359375 8.625 4.359375 19.921883q0 11.125 -4.359375 19.765625q-4.359375 8.625 -12.03125 13.546875q-7.65625 4.921875 -17.65625 4.921875zm0 -9.6875q6.453125 0 11.296875 -3.703125q4.84375 -3.71875 7.65625 -10.171875q2.828125 -6.453125 2.828125 -14.84375q0 -8.390633 -2.828125 -14.843758q-2.8125 -6.453125 -7.65625 -10.078125q-4.84375 -3.625 -11.296875 -3.625q-6.28125 0 -11.203125 3.625q-4.921875 3.625 -7.75 10.078125q-2.828125 6.453125 -2.828125 14.843758q0 8.390625 2.828125 14.84375q2.828125 6.453125 7.75 10.171875q4.921875 3.703125 11.203125 3.703125zm51.945282 8.390625l0 -73.73438l11.296875 0l0 13.078125q2.90625 -4.515625 6.78125 -7.828125q3.875 -3.3125 8.546875 -5.15625q4.671875 -1.859375 9.6875 -1.859375q6.125 0 10.953125 3.0625q4.84375 3.0625 7.75 9.84375q2.90625 6.78125 2.90625 17.90625l0 44.687508l-11.296875 0l0 -44.359383q0 -7.75 -1.78125 -12.34375q-1.765625 -4.59375 -4.828125 -6.609375q-3.0625 -2.03125 -6.9375 -2.03125q-3.703125 0 -7.5 1.625q-3.796875 1.609375 -7.03125 4.59375q-3.21875 2.984375 -5.234375 7.1875q-2.015625 4.1875 -2.015625 9.515625l0 42.421883l-11.296875 0zm165.84372 0l0 -9.359375l18.890625 0l0 -55.015633l-17.921875 0l0 -9.359375l29.53125 0l0 64.37501l17.265625 0l0 9.359375l-47.765625 0zm24.046875 -89.21876q-3.390625 0 -5.8125 -2.40625q-2.421875 -2.421875 -2.421875 -5.8125q0 -3.546875 2.328125 -5.96875q2.34375 -2.4218712 5.90625 -2.4218712q3.375 0 5.875 2.4999962q2.5 2.5 2.5 5.890625q0 3.390625 -2.5 5.8125q-2.5 2.40625 -5.875 2.40625zm52.1015 89.21876l0 -73.73438l11.296875 0l0 13.078125q2.90625 -4.515625 6.78125 -7.828125q3.875 -3.3125 8.546875 -5.15625q4.671875 -1.859375 9.6875 -1.859375q6.125 0 10.953125 3.0625q4.84375 3.0625 7.75 9.84375q2.90625 6.78125 2.90625 17.90625l0 44.687508l-11.296875 0l0 -44.359383q0 -7.75 -1.78125 -12.34375q-1.765625 -4.59375 -4.828125 -6.609375q-3.0625 -2.03125 -6.9375 -2.03125q-3.703125 0 -7.5 1.625q-3.796875 1.609375 -7.03125 4.59375q-3.21875 2.984375 -5.234375 7.1875q-2.015625 4.1875 -2.015625 9.515625l0 42.421883l-11.296875 0zm95.19531 -64.53126l-15.984375 0l0 -9.203125l15.984375 0l0 -6.125q0 -9.84375 3.46875 -16.125q3.46875 -6.296875 9.59375 -9.281246q6.125 -2.984375 14.03125 -2.984375q6.9375 0 12.984375 2.5q6.0625 2.4999962 10.09375 7.656246l-6.140625 8.5625l-0.96875 1.28125l-0.96875 -0.640625q-0.15625 -1.296875 -0.640625 -2.578125q-0.484375 -1.296875 -2.25 -3.234375q-2.59375 -2.25 -5.171875 -3.21875q-2.578125 -0.96875 -6.609375 -0.96875q-4.6875 0 -8.390625 1.859375q-3.703125 1.84375 -5.8125 5.96875q-2.09375 4.109375 -2.09375 11.203125l0 6.125l24.203125 0l0 9.203125l-24.203125 0l0 64.53126l-11.125 0l0 -64.53126zm73.72656 -9.203125l12.09375 0l-0.484375 21.46875l-1.453125 -2.421875q0.96875 -5.0 3.390625 -8.875q2.421875 -3.875 5.796875 -6.53125q3.390625 -2.671875 7.421875 -4.03125q4.046875 -1.375 8.40625 -1.375q5.796875 0 10.71875 2.015625q4.921875 2.015625 8.796875 6.046875l-5.171875 9.03125l-0.640625 1.453125l-1.125 -0.640625q-0.328125 -1.296875 -0.96875 -2.421875q-0.640625 -1.125 -2.75 -2.734375q-2.578125 -1.625 -4.765625 -2.1875q-2.171875 -0.5625 -4.90625 -0.5625q-4.03125 0 -8.0625 1.53125q-4.03125 1.53125 -7.34375 4.765625q-3.3125 3.21875 -5.25 8.21875q-1.9375 5.0 -1.9375 11.937508l0 39.203125l-11.765625 0l0 -73.89063zm95.50781 75.51563q-12.59375 0 -19.375 -5.71875q-6.765625 -5.734375 -6.765625 -14.609375q0 -5.96875 2.90625 -10.734375q2.90625 -4.765625 7.984375 -8.0625q5.078125 -3.3125 11.84375 -5.0781326q6.78125 -1.78125 14.375 -1.78125q2.734375 0 5.5625 0.078125q2.828125 0.078125 5.96875 0.328125q3.140625 0.234375 6.53125 0.71875l0.328125 8.875008q-2.90625 -0.484375 -5.890625 -0.71875q-2.984375 -0.25 -5.890625 -0.40625q-2.90625 -0.15625 -5.640625 -0.15625q-5.8125 0 -10.65625 0.96875q-4.84375 0.953125 -8.390625 2.890625q-3.546875 1.9375 -5.484375 5.015625q-1.9375 3.0625 -1.9375 7.40625q0 3.390625 1.203125 5.734375q1.21875 2.34375 3.3125 3.71875q2.109375 1.359375 4.921875 2.015625q2.828125 0.640625 6.21875 0.640625q6.296875 0 11.203125 -2.015625q4.921875 -2.015625 8.390625 -5.890625q3.46875 -3.875 5.234375 -9.515625q1.78125 -5.65625 1.78125 -12.90625q0 -10.968758 -2.578125 -17.093758q-2.578125 -6.140625 -7.65625 -8.71875q-5.078125 -2.59375 -12.984375 -2.59375q-5.328125 0 -10.5 2.03125q-5.15625 2.015625 -9.34375 6.203125l-5.65625 -7.421875q5.171875 -5.15625 11.9375 -7.734375q6.78125 -2.59375 14.359375 -2.59375q7.265625 0 13.234375 1.78125q5.96875 1.765625 10.234375 5.890625q4.28125 4.109375 6.625 11.046875q2.34375 6.9375 2.34375 17.421883l0 39.203125l-12.59375 0l0 -11.296875q-2.09375 4.03125 -5.078125 6.625q-2.984375 2.578125 -6.375 3.953125q-3.390625 1.359375 -6.9375 1.921875q-3.546875 0.578125 -6.765625 0.578125z" fill-rule="nonzero"/></g></svg>