<svg version="1.1" viewBox="0.0 0.0 958.0761154855643 225.246719160105" fill="none" stroke="none" stroke-linecap="square" stroke-miterlimit="10" xmlns:xlink="http://www.w3.org/1999/xlink" xmlns="http://www.w3.org/2000/svg"><clipPath id="p.0"><path d="m0 0l958.0761 0l0 225.24672l-958.0761 0l0 -225.24672z" clip-rule="nonzero"/></clipPath><g clip-path="url(#p.0)"><path fill="#000000" fill-opacity="0.0" d="m0 0l958.0761 0l0 225.24672l-958.0761 0z" fill-rule="evenodd"/><path fill="#000000" fill-opacity="0.0" d="m24.014435 5.1587925l910.04724 0l0 214.92912l-910.04724 0z" fill-rule="evenodd"/><path fill="#000000" d="m162.03427 170.82004q-8.078125 0 -14.859375 -2.90625q-6.765625 -2.90625 -11.6875 -8.0625q-4.921875 -5.171875 -7.671875 -12.1875q-2.734375 -7.015625 -2.734375 -15.40625q0 -8.234383 2.734375 -15.250008q2.75 -7.015625 7.671875 -12.171875q4.921875 -5.171875 11.6875 -8.0625q6.78125 -2.90625 14.6875 -2.90625q9.03125 0 16.203125 3.625q7.1875 3.625 11.71875 10.078125l-7.265625 7.09375l-1.125 1.140625l-0.8125 -0.8125q0 -1.28125 -0.5625 -2.40625q-0.5625 -1.140625 -2.5 -3.078125q-3.546875 -3.21875 -7.59375 -4.515625q-4.03125 -1.296875 -9.34375 -1.296875q-4.6875 0 -8.890625 1.9375q-4.1875 1.9375 -7.5 5.578125q-3.296875 3.625 -5.234375 8.796875q-1.9375 5.15625 -1.9375 11.437508q0 6.296875 1.9375 11.546875q1.9375 5.234375 5.328125 9.109375q3.390625 3.875 8.140625 6.046875q4.765625 2.171875 10.25 2.171875q3.703125 0 7.09375 -1.046875q3.390625 -1.046875 6.453125 -3.0625q3.0625 -2.015625 5.65625 -4.921875l6.765625 7.90625q-5.484375 5.8125 -12.1875 8.71875q-6.6875 2.90625 -14.421875 2.90625l0 0zm68.72653 0q-12.59375 0 -19.375 -5.71875q-6.765625 -5.734375 -6.765625 -14.609375q0 -5.96875 2.90625 -10.734375q2.90625 -4.765625 7.984375 -8.0625q5.078125 -3.3125 11.84375 -5.0781326q6.78125 -1.78125 14.375 -1.78125q2.734375 0 5.5625 0.078125q2.828125 0.078125 5.96875 0.328125q3.140625 0.234375 6.53125 0.71875l0.328125 8.875008q-2.90625 -0.484375 -5.890625 -0.71875q-2.984375 -0.25 -5.890625 -0.40625q-2.90625 -0.15625 -5.640625 -0.15625q-5.8125 0 -10.65625 0.96875q-4.84375 0.953125 -8.390625 2.890625q-3.546875 1.9375 -5.484375 5.015625q-1.9375 3.0625 -1.9375 7.40625q0 3.390625 1.203125 5.734375q1.21875 2.34375 3.3125 3.71875q2.109375 1.359375 4.921875 2.015625q2.828125 0.640625 6.21875 0.640625q6.296875 0 11.203125 -2.015625q4.921875 -2.015625 8.390625 -5.890625q3.46875 -3.875 5.234375 -9.515625q1.78125 -5.65625 1.78125 -12.90625q0 -10.968758 -2.578125 -17.093758q-2.578125 -6.140625 -7.65625 -8.71875q-5.078125 -2.59375 -12.984375 -2.59375q-5.328125 0 -10.5 2.03125q-5.15625 2.015625 -9.34375 6.203125l-5.65625 -7.421875q5.171875 -5.15625 11.9375 -7.734375q6.78125 -2.59375 14.359375 -2.59375q7.265625 0 13.234375 1.78125q5.96875 1.765625 10.234375 5.890625q4.28125 4.109375 6.625 11.046875q2.34375 6.9375 2.34375 17.421883l0 39.203125l-12.59375 0l0 -11.296875q-2.09375 4.03125 -5.078125 6.625q-2.984375 2.578125 -6.375 3.953125q-3.390625 1.359375 -6.9375 1.921875q-3.546875 0.578125 -6.765625 0.578125zm58.226532 -1.78125l0 -73.73438l11.296875 0l0 13.078125q2.90625 -4.515625 6.78125 -7.828125q3.875 -3.3125 8.546875 -5.15625q4.671875 -1.859375 9.6875 -1.859375q6.125 0 10.953125 3.0625q4.84375 3.0625 7.75 9.84375q2.90625 6.78125 2.90625 17.90625l0 44.687508l-11.296875 0l0 -44.359383q0 -7.75 -1.78125 -12.34375q-1.765625 -4.59375 -4.828125 -6.609375q-3.0625 -2.03125 -6.9375 -2.03125q-3.703125 0 -7.5 1.625q-3.796875 1.609375 -7.03125 4.59375q-3.21875 2.984375 -5.234375 7.1875q-2.015625 4.1875 -2.015625 9.515625l0 42.421883l-11.296875 0zm109.38278 1.296875q-10.0 0 -17.671875 -4.921875q-7.65625 -4.921875 -12.015625 -13.546875q-4.34375 -8.640625 -4.34375 -19.765625q0 -11.296883 4.34375 -19.921883q4.359375 -8.640625 12.015625 -13.5625q7.671875 -4.921875 17.671875 -4.921875q10.0 0 17.65625 4.921875q7.671875 4.921875 12.03125 13.5625q4.359375 8.625 4.359375 19.921883q0 11.125 -4.359375 19.765625q-4.359375 8.625 -12.03125 13.546875q-7.65625 4.921875 -17.65625 4.921875zm0 -9.6875q6.453125 0 11.296875 -3.703125q4.84375 -3.71875 7.65625 -10.171875q2.828125 -6.453125 2.828125 -14.84375q0 -8.390633 -2.828125 -14.843758q-2.8125 -6.453125 -7.65625 -10.078125q-4.84375 -3.625 -11.296875 -3.625q-6.28125 0 -11.203125 3.625q-4.921875 3.625 -7.75 10.078125q-2.828125 6.453125 -2.828125 14.843758q0 8.390625 2.828125 14.84375q2.828125 6.453125 7.75 10.171875q4.921875 3.703125 11.203125 3.703125zm51.945282 8.390625l0 -73.73438l11.296875 0l0 13.078125q2.90625 -4.515625 6.78125 -7.828125q3.875 -3.3125 8.546875 -5.15625q4.671875 -1.859375 9.6875 -1.859375q6.125 0 10.953125 3.0625q4.84375 3.0625 7.75 9.84375q2.90625 6.78125 2.90625 17.90625l0 44.687508l-11.296875 0l0 -44.359383q0 -7.75 -1.78125 -12.34375q-1.765625 -4.59375 -4.828125 -6.609375q-3.0625 -2.03125 -6.9375 -2.03125q-3.703125 0 -7.5 1.625q-3.796875 1.609375 -7.03125 4.59375q-3.21875 2.984375 -5.234375 7.1875q-2.015625 4.1875 -2.015625 9.515625l0 42.421883l-11.296875 0zm117.28903 1.125q-7.09375 0 -11.609375 -2.40625q-4.515625 -2.421875 -6.9375 -7.5q-2.421875 -5.09375 -3.15625 -12.828125q-0.71875 -7.75 -0.390625 -18.40625l1.9375 -52.593758l12.09375 -1.4375l1.609375 -0.171875l0.15625 1.125q-0.796875 1.140625 -1.359375 2.265625q-0.5625 1.125 -0.890625 3.875l-1.453125 18.234375l0.484375 2.890625l-1.125 26.625008q-0.484375 12.265625 0.640625 18.96875q1.125 6.6875 4.03125 9.1875q2.90625 2.5 7.75 2.5q5.3125 0 9.421875 -2.09375q4.125 -2.109375 8.640625 -5.328125l3.546875 9.1875q-5.484375 4.03125 -11.296875 5.96875q-5.796875 1.9375 -12.09375 1.9375l0 0zm-36.9375 -74.85938l53.078125 0l0 9.53125l-53.078125 0l0 -9.53125zm113.24219 75.34376q-8.0625 0 -14.6875 -2.5q-6.609375 -2.5 -11.375 -7.328125q-4.75 -4.84375 -7.328125 -12.015625q-2.578125 -7.1875 -2.578125 -16.390625q0 -9.359383 2.65625 -16.609383q2.671875 -7.265625 7.265625 -12.1875q4.59375 -4.921875 10.796875 -7.5q6.21875 -2.578125 13.15625 -2.578125q6.296875 0 11.78125 2.09375q5.484375 2.09375 9.515625 6.375q4.03125 4.28125 6.375 10.890625q2.34375 6.609375 2.34375 15.640633q0 1.296875 -0.09375 2.671875q-0.078125 1.375 -0.234375 2.65625l-52.4375 0q0.328125 7.09375 2.421875 12.34375q2.09375 5.25 5.484375 8.5625q3.390625 3.296875 7.828125 4.90625q4.4375 1.609375 9.4375 1.609375q3.875 0 7.25 -0.875q3.390625 -0.890625 6.375 -2.75q3.0 -1.859375 5.40625 -4.59375l6.453125 6.296875q-3.0625 3.703125 -7.015625 6.28125q-3.953125 2.578125 -8.640625 3.78125q-4.671875 1.21875 -10.15625 1.21875zm-24.359375 -45.812508l40.5 0q0 -5.15625 -1.375 -9.265625q-1.375 -4.125 -3.875 -7.109375q-2.5 -2.984375 -5.96875 -4.515625q-3.46875 -1.53125 -7.8125 -1.53125q-3.875 0 -7.34375 1.296875q-3.46875 1.28125 -6.375 4.109375q-2.90625 2.8125 -4.921875 7.015625q-2.015625 4.1875 -2.828125 10.0zm107.13275 45.984383q-8.078125 0 -14.859375 -2.90625q-6.765625 -2.90625 -11.6875 -8.0625q-4.921875 -5.171875 -7.671875 -12.1875q-2.734375 -7.015625 -2.734375 -15.40625q0 -8.234383 2.734375 -15.250008q2.75 -7.015625 7.671875 -12.171875q4.921875 -5.171875 11.6875 -8.0625q6.78125 -2.90625 14.6875 -2.90625q9.03125 0 16.203125 3.625q7.1875 3.625 11.71875 10.078125l-7.265625 7.09375l-1.125 1.140625l-0.8125 -0.8125q0 -1.28125 -0.5625 -2.40625q-0.5625 -1.140625 -2.5 -3.078125q-3.546875 -3.21875 -7.59375 -4.515625q-4.03125 -1.296875 -9.34375 -1.296875q-4.6875 0 -8.890625 1.9375q-4.1875 1.9375 -7.5 5.578125q-3.296875 3.625 -5.234375 8.796875q-1.9375 5.15625 -1.9375 11.437508q0 6.296875 1.9375 11.546875q1.9375 5.234375 5.328125 9.109375q3.390625 3.875 8.140625 6.046875q4.765625 2.171875 10.25 2.171875q3.703125 0 7.09375 -1.046875q3.390625 -1.046875 6.453125 -3.0625q3.0625 -2.015625 5.65625 -4.921875l6.765625 7.90625q-5.484375 5.8125 -12.1875 8.71875q-6.6875 2.90625 -14.421875 2.90625l0 0zm46.460938 -109.0625l11.125 0l1.609375 0l0 1.125q-0.96875 0.96875 -1.21875 2.1093712q-0.234375 1.125 -0.234375 3.859375l0 39.53125q2.90625 -4.515625 6.859375 -7.828125q3.953125 -3.3125 8.390625 -5.15625q4.4375 -1.859375 8.953125 -1.859375q6.625 0 11.703125 3.0625q5.078125 3.0625 7.890625 9.84375q2.828125 6.78125 2.828125 17.90625l0 44.687508l-11.28125 0l0 -44.359383q0 -7.75 -1.78125 -12.34375q-1.78125 -4.59375 -4.84375 -6.609375q-3.0625 -2.03125 -6.9375 -2.03125q-2.90625 0 -5.96875 0.96875q-3.0625 0.96875 -5.890625 2.90625q-2.8125 1.9375 -5.078125 4.765625q-2.25 2.8125 -3.546875 6.375q-1.296875 3.546875 -1.296875 7.90625l0 42.421883l-11.28125 0l0 -107.28125z" fill-rule="nonzero"/></g></svg>