<?xml version="1.0" standalone="no"?>
<!DOCTYPE svg PUBLIC "-//W3C//DTD SVG 20010904//EN"
 "http://www.w3.org/TR/2001/REC-SVG-20010904/DTD/svg10.dtd">
<svg version="1.0" xmlns="http://www.w3.org/2000/svg"
 width="400.000000pt" height="400.000000pt" viewBox="0 0 400.000000 400.000000"
 preserveAspectRatio="xMidYMid meet">

<g transform="translate(0.000000,400.000000) scale(0.100000,-0.100000)"
fill="#000000" stroke="none">
<path d="M2795 2717 c-47 -21 -127 -72 -157 -99 -89 -84 -135 -115 -262 -177
-122 -58 -455 -259 -801 -483 -55 -35 -119 -75 -142 -88 -24 -13 -41 -26 -38
-28 3 -3 35 -8 71 -11 l66 -6 -349 -179 c-191 -98 -352 -182 -356 -186 -5 -4
9 -6 30 -3 l38 3 -30 -24 c-16 -13 -41 -33 -55 -45 l-25 -22 75 6 c41 3 86 6
99 6 13 1 92 26 175 56 334 121 654 203 795 203 75 0 95 -13 36 -24 -67 -13
-48 -26 39 -26 l84 0 12 -37 c20 -62 54 -106 118 -153 82 -61 90 -75 56 -106
-14 -14 -24 -27 -22 -30 3 -2 31 1 64 7 56 11 160 7 213 -8 47 -12 11 17 -65
53 -75 36 -161 109 -188 162 -37 71 -28 158 22 205 16 15 103 67 194 115 188
98 270 157 316 227 17 27 55 107 83 179 81 209 112 249 228 297 42 17 79 34
84 38 10 10 -173 158 -225 181 -56 26 -121 24 -183 -3z"/>
</g>
</svg>
