<svg version="1.1" viewBox="0.0 0.0 224.3018372703412 164.3490813648294" fill="none" stroke="none" stroke-linecap="square" stroke-miterlimit="10" xmlns:xlink="http://www.w3.org/1999/xlink" xmlns="http://www.w3.org/2000/svg"><clipPath id="p.0"><path d="m0 0l224.30183 0l0 164.34908l-224.30183 0l0 -164.34908z" clip-rule="nonzero"/></clipPath><g clip-path="url(#p.0)"><path fill="#000000" fill-opacity="0.0" d="m0 0l224.30183 0l0 164.34908l-224.30183 0z" fill-rule="evenodd"/><path fill="#000000" fill-opacity="0.0" d="m234.01443 65.34252l910.04724 0l0 67.874016l-910.04724 0z" fill-rule="evenodd"/><path fill="#000000" fill-opacity="0.0" d="m-6.8635173 -3.3648293l230.2362 0l0 190.67715l-230.2362 0z" fill-rule="evenodd"/><path fill="#000000" d="m67.08178 142.86205q-7.0625 0 -13.0 -2.53125q-5.9375 -2.546875 -10.25 -7.0625q-4.3125 -4.53125 -6.71875 -10.671883q-2.390625 -6.15625 -2.390625 -13.5q0 -7.21875 2.390625 -13.359375q2.40625 -6.140625 6.71875 -10.65625q4.3125 -4.53125 10.25 -7.078125q5.9375 -2.546875 12.859375 -2.546875q7.90625 0 14.1875 3.1875q6.296875 3.171875 10.265625 8.828125l-6.359375 6.21875l-1.0 0.984375l-0.703125 -0.703125q0 -1.125 -0.5 -2.109375q-0.484375 -1.0 -2.1875 -2.703125q-3.109375 -2.828125 -6.640625 -3.953125q-3.53125 -1.125 -8.203125 -1.125q-4.09375 0 -7.765625 1.703125q-3.671875 1.6875 -6.578125 4.875q-2.890625 3.171875 -4.59375 7.703125q-1.6875 4.515625 -1.6875 10.03125q0 5.5 1.6875 10.09375q1.703125 4.59375 4.671875 7.984375q2.96875 3.3906326 7.125 5.3125076q4.171875 1.90625 8.984375 1.90625q3.25 0 6.21875 -0.921875q2.96875 -0.921875 5.65625 -2.6875q2.6875 -1.765625 4.9375 -4.3125076l5.9375 6.9218826q-4.796875 5.09375 -10.671875 7.640625q-5.859375 2.53125 -12.640625 2.53125l0 0z" fill-rule="nonzero"/><path fill="#000000" d="m155.98021 72.29954l0 -8.828125l-27.046875 -7.171875l0 8.28125l27.046875 7.71875zm5.53125 48.59375q0 17.109383 -18.21875 17.109383q-6.078125 0 -8.84375 -2.203125q-2.75 -2.21875 -2.75 -5.53125q0 -5.5156326 4.40625 -8.828133q7.734375 -6.078125 19.875 -4.96875l0 -35.328125l-27.046875 -7.1875l0 38.09375q0 17.125008 -18.218758 17.125008q-6.078125 0 -8.828125 -2.2187576q-2.765625 -2.203125 -2.765625 -5.515625q0 -5.515625 4.421875 -8.828125q7.71875 -6.078125 19.875 -4.96875l0 -62.390625l38.093758 9.9375l0 65.703125z" fill-rule="nonzero"/></g></svg>